<svg version="1.1" xmlns="http://www.w3.org/2000/svg" xmlns:xlink="http://www.w3.org/1999/xlink" x="0px" y="0px" width="100px" height="100px" viewBox="0 0 100 100" enable-background="new 0 0 100 100" xml:space="preserve"><circle fill="#801615" cx="51" cy="52" r="41.5"/><linearGradient id="SVGID_1_" gradientUnits="userSpaceOnUse" x1="49.9995" y1="8.5" x2="49.9995" y2="91.5005"><stop  offset="0" style="stop-color:#d65431"/><stop  offset="1" style="stop-color:#b51c1c"/></linearGradient><circle fill="url(#SVGID_1_)" cx="50" cy="50" r="41.5"/><g><path fill="#FFFFFF" d="M75.256,38.772H55.284c0-0.003,0-0.007,0-0.01v-0.941h-0.008c-0.021-0.146-0.083-0.317-0.177-0.501	c-0.211-1.695-0.657-4.573-1.447-7.065h7.854c0.558,0,1.01-0.451,1.01-1.008c0-0.558-0.452-1.009-1.01-1.009H52.88	c-0.743-1.589-1.695-2.714-2.903-2.714c-1.221,0-2.157,1.124-2.871,2.714h-8.41c-0.558,0-1.009,0.451-1.009,1.009	c0,0.557,0.451,1.008,1.009,1.008h7.676c-0.779,2.617-1.164,5.659-1.325,7.312c-0.029,0.087-0.052,0.17-0.063,0.243l-0.006,0.517	c0,0.003,0,0.006,0,0.008l-0.002,0.379l-0.001,0.049l0,0v0.009H24.946c-2.148,0-3.83,1.33-3.83,3.026v4.931	c0,1.67,1.631,2.984,3.73,3.026l20.925,3.962c0.216,2.189,0.465,4.479,0.731,6.706l-8.028,1.118v5.982l8.767,0.751	c0.028,0.002,0.058,0.004,0.086,0.004c0.057,0,0.107-0.021,0.162-0.031c-0.002,0.227-0.007,0.451-0.007,0.683	c0,1.318,0.059,2.568,0.164,3.521c0.105,0.946,0.35,3.161,2.37,3.161s2.265-2.215,2.37-3.161c0.085-0.765,0.138-1.724,0.154-2.753	c0.075-0.44,0.152-0.92,0.231-1.435c0.027,0.002,0.048,0.015,0.074,0.015c0.028,0,0.056-0.001,0.085-0.003l8.939-0.75v-5.985	l-8.088-1.103c0-0.002,0-0.003,0-0.004c0.25-2.21,0.487-4.511,0.693-6.726l20.88-3.953c2.1-0.042,3.73-1.354,3.73-3.026v-4.931	C79.086,40.102,77.404,38.772,75.256,38.772z M46.992,38.133c0.21-0.331,1.123-1.564,3.014-1.564c1.725,0,2.816,1.027,3.191,1.506	c0.013,0.13,0.021,0.252,0.028,0.365c-0.332-0.02-0.775-0.104-1.209-0.186c-0.606-0.116-1.232-0.237-1.796-0.237	c-0.558,0-1.199,0.122-1.817,0.239c-0.51,0.098-1.04,0.198-1.412,0.205L46.992,38.133L46.992,38.133z"/></g></svg>